<?xml version="1.0" encoding="utf-8"?>
<!-- Generator: Adobe Illustrator 24.3.0, SVG Export Plug-In . SVG Version: 6.00 Build 0)  -->
<svg version="1.1" id="Слой_1" xmlns="http://www.w3.org/2000/svg" xmlns:xlink="http://www.w3.org/1999/xlink" x="0px" y="0px"
	 viewBox="0 0 354.62 240" xml:space="preserve">
<style type="text/css">
	.st0{fill:#8E7171;}
	.st1{fill:none;stroke:#8E7171;stroke-width:15;stroke-linecap:round;}
	@keyframes slidein {
            0% {
                transform: translate(0);
            }

            100% {
                transform: translate(354.62, 0);
            }
        }
#s {animation: slidein 10s infinite linear;}
</style>
<g id="s" transform="matrix(1 0 0 1 354.62 0)">
	<path class="st0" d="M214.76,86.25c0,5.52-4.48,10-10,10h-69.4c-5.52,0-10-4.48-10-10V19.21c0-5.52,4.48-10,10-10h69.4
			c5.52,0,10,4.48,10,10V86.25z"/>
	<path class="st0" d="M49.55,120.19l45.26,83.24H6.53L49.55,120.19z"/>
	<path class="st0" d="M297.64,92L252.38,8.76h88.28L297.64,92z"/>
	<ellipse class="st0" cx="170.8" cy="168.7" rx="50.29" ry="48.96"/>
	<path class="st0" d="M297.08,120.19l12.04,35.71h38.97l-31.53,22.07l12.04,35.71l-31.53-22.07l-31.53,22.07l12.04-35.71
		l-31.53-22.07h38.97L297.08,120.19z"/>
	<path class="st1" d="M18.98,19.31L82.2,80.86"/>
	<path class="st1" d="M82.2,19.31L18.98,80.86"/>
	
    <path class="st0" d="M214.76,326.25c0,5.52-4.48,10-10,10h-69.4c-5.52,0-10-4.48-10-10v-67.04c0-5.52,4.48-10,10-10h69.4
        c5.52,0,10,4.48,10,10V326.25z"/>
    <path class="st0" d="M49.55,360.19l45.26,83.24H6.53L49.55,360.19z"/>
    <path class="st0" d="M297.64,332l-45.26-83.24h88.28L297.64,332z"/>
    <ellipse class="st0" cx="170.8" cy="408.7" rx="50.29" ry="48.96"/>
    <path class="st0" d="M297.08,360.19l12.04,35.71h38.97l-31.53,22.07l12.04,35.71l-31.53-22.07l-31.53,22.07l12.04-35.71
        l-31.53-22.07h38.97L297.08,360.19z"/>
    <path class="st1" d="M18.98,259.31l63.22,61.55"/>
    <path class="st1" d="M82.2,259.31l-63.22,61.55"/>

    <path class="st0" d="M214.77-153.75c0,5.52-4.48,10-10,10h-69.4c-5.52,0-10-4.48-10-10v-67.04c0-5.52,4.48-10,10-10h69.4
        c5.52,0,10,4.48,10,10L214.77-153.75L214.77-153.75z"/>
    <path class="st0" d="M49.55-119.81l45.26,83.24H6.53L49.55-119.81z"/>
    <path class="st0" d="M297.64-148l-45.26-83.24h88.28L297.64-148z"/>
    <ellipse class="st0" cx="170.8" cy="-71.3" rx="50.29" ry="48.96"/>
    <path class="st0" d="M297.08-119.81l12.04,35.71h38.97l-31.53,22.07l12.04,35.71l-31.53-22.07l-31.53,22.07l12.04-35.71
        L246.05-84.1h38.97L297.08-119.81z"/>
    <path class="st1" d="M18.99-220.69l63.21,61.55"/>
    <path class="st1" d="M82.2-220.69l-63.21,61.55"/>

    <path class="st0" d="M-139.86,86.25c0,5.52-4.48,10-10,10h-69.4c-5.52,0-10-4.48-10-10V19.21c0-5.52,4.48-10,10-10h69.4
        c5.52,0,10,4.48,10,10V86.25z"/>
    <path class="st0" d="M-305.07,120.19l45.26,83.24h-88.28L-305.07,120.19z"/>
    <path class="st0" d="M-56.98,91.99l-45.26-83.24h88.28L-56.98,91.99z"/>
    <ellipse class="st0" cx="-183.82" cy="168.7" rx="50.29" ry="48.96"/>
    <path class="st0" d="M-57.54,120.19l12.04,35.71h38.97l-31.53,22.07l12.04,35.71l-31.53-22.07l-31.53,22.07l12.04-35.71
        l-31.53-22.07h38.97L-57.54,120.19z"/>
    <path class="st1" d="M-335.64,19.31l63.22,61.55"/>
    <path class="st1" d="M-272.42,19.31l-63.22,61.55"/>
    
    <path class="st0" d="M-139.86,326.25c0,5.52-4.48,10-10,10h-69.4c-5.52,0-10-4.48-10-10v-67.04c0-5.52,4.48-10,10-10h69.4
        c5.52,0,10,4.48,10,10V326.25z"/>
    <path class="st0" d="M-305.07,360.19l45.26,83.24h-88.28L-305.07,360.19z"/>
    <path class="st0" d="M-56.98,331.99l-45.26-83.24h88.28L-56.98,331.99z"/>
    <ellipse class="st0" cx="-183.82" cy="408.7" rx="50.29" ry="48.96"/>
    <path class="st0" d="M-57.54,360.19l12.04,35.71h38.97l-31.53,22.07l12.04,35.71l-31.53-22.07l-31.53,22.07l12.04-35.71
        l-31.53-22.07h38.97L-57.54,360.19z"/>
    <path class="st1" d="M-335.64,259.31l63.22,61.55"/>
    <path class="st1" d="M-272.42,259.31l-63.22,61.55"/>

    <path class="st0" d="M-139.85-153.75c0,5.52-4.48,10-10,10h-69.4c-5.52,0-10-4.48-10-10v-67.04c0-5.52,4.48-10,10-10h69.4
        c5.52,0,10,4.48,10,10L-139.85-153.75L-139.85-153.75z"/>
    <path class="st0" d="M-305.07-119.81l45.26,83.24h-88.28L-305.07-119.81z"/>
    <path class="st0" d="M-56.98-148l-45.26-83.24h88.28L-56.98-148z"/>
    <ellipse class="st0" cx="-183.82" cy="-71.3" rx="50.29" ry="48.96"/>
    <path class="st0" d="M-57.54-119.81L-45.5-84.1h38.97l-31.53,22.07l12.04,35.71l-31.53-22.07l-31.53,22.07l12.04-35.71
        l-31.53-22.07h38.97L-57.54-119.81z"/>
    <path class="st1" d="M-335.63-220.69l63.21,61.55"/>
    <path class="st1" d="M-272.42-220.69l-63.21,61.55"/>

    <path class="st0" d="M569.39,86.25c0,5.52-4.48,10-10,10h-69.4c-5.52,0-10-4.48-10-10V19.21c0-5.52,4.48-10,10-10h69.4
        c5.52,0,10,4.48,10,10V86.25L569.39,86.25z"/>
    <path class="st0" d="M404.18,120.19l45.26,83.24h-88.29L404.18,120.19z"/>
    <path class="st0" d="M652.26,91.99L607.01,8.76h88.28L652.26,91.99z"/>
    <ellipse class="st0" cx="525.43" cy="168.7" rx="50.29" ry="48.96"/>
    <path class="st0" d="M651.7,120.19l12.04,35.71h38.97l-31.53,22.07l12.04,35.71l-31.53-22.07l-31.53,22.07l12.04-35.71
        l-31.53-22.07h38.97L651.7,120.19z"/>
    <path class="st1" d="M373.61,19.31l63.22,61.55"/>
    <path class="st1" d="M436.83,19.31l-63.22,61.55"/>
    
    <path class="st0" d="M569.39,326.25c0,5.52-4.48,10-10,10h-69.4c-5.52,0-10-4.48-10-10v-67.04c0-5.52,4.48-10,10-10h69.4
        c5.52,0,10,4.48,10,10V326.25L569.39,326.25z"/>
    <path class="st0" d="M404.17,360.19l45.26,83.24h-88.28L404.17,360.19z"/>
    <path class="st0" d="M652.26,331.99L607,248.76h88.28L652.26,331.99z"/>
    <ellipse class="st0" cx="525.42" cy="408.7" rx="50.29" ry="48.96"/>
    <path class="st0" d="M651.7,360.19l12.04,35.71h38.97l-31.53,22.07l12.04,35.71l-31.53-22.07l-31.53,22.07l12.04-35.71
        l-31.53-22.07h38.97L651.7,360.19z"/>
    <path class="st1" d="M373.61,259.31l63.22,61.55"/>
    <path class="st1" d="M436.82,259.31l-63.21,61.55"/>

    <path class="st0" d="M569.39-153.75c0,5.52-4.48,10-10,10h-69.4c-5.52,0-10-4.48-10-10v-67.04c0-5.52,4.48-10,10-10h69.4
        c5.52,0,10,4.48,10,10V-153.75L569.39-153.75z"/>
    <path class="st0" d="M404.17-119.81l45.26,83.24h-88.28L404.17-119.81z"/>
    <path class="st0" d="M652.26-148L607-231.24h88.28L652.26-148z"/>
    <ellipse class="st0" cx="525.42" cy="-71.3" rx="50.29" ry="48.96"/>
    <path class="st0" d="M651.7-119.81l12.04,35.71h38.97l-31.53,22.07l12.04,35.71l-31.53-22.07l-31.53,22.07l12.04-35.71
        L600.67-84.1h38.97L651.7-119.81z"/>
    <path class="st1" d="M373.61-220.69l63.21,61.55"/>
    <path class="st1" d="M436.82-220.69l-63.21,61.55"/>
</g>

</svg>
