<svg id="Слой_1" data-name="Слой 1" xmlns="http://www.w3.org/2000/svg" xmlns:xlink="http://www.w3.org/1999/xlink" viewBox="0 0 1920 1020" preserveAspectRatio="none">
<defs>
<style>.cls-1,.cls-9{fill:none;}
.cls-2{clip-path:url(#clip-path);}
.cls-9{stroke-width:10px;stroke:#fffefe;}
.cls-7{fill:red;fill-opacity:0.75;}
.cls-8{fill:#1846ea;fill-opacity:0.81;}
</style>
<clipPath id="clip-path">
    <rect id="SVGID" class="cls-1" x="-0.20702" y="-3.97934" width="1924" height="1024"/>
</clipPath></defs>
<g class="cls-2">
    <path class="cls-7" d="M137.86,942.26V832.22L313.24,938.2l-28.22-91.79l66.55,42.54l-66.52-161.26l199.56,65.92V688.14l69.21,10.65
			l-24.19-107.51l44.35,12.17l-2.69-131.34l190.15,78.6l16.8-51.72l95.41,58.82l42.33-174.95l63.83,98.89l67.19-62.88l215.69,204.36
			l-36.96-234.28l75.93,62.37l29.56-45.13l168.65,75.56l-61.82-228.2l166.64,23.33l-21.5-137.93l163.95,57.3l-37.63-57.3
			l68.54,12.68l-90.04-127.79l163.95,28.9L1924-4v1024.02H-0.21L137.86,942.26z"/>
    <path class="cls-8" d="M-0.21-4H1924l-72.03,56.74l-163.95-28.9l90.04,127.79l-68.54-12.68l37.63,57.3l-163.95-57.3l21.5,137.93
			l-166.64-23.33l61.82,228.2l-168.65-75.56l-29.56,45.13l-75.93-62.37l36.96,234.28l-215.69-204.36l-67.19,62.88l-63.83-98.89
			l-42.33,174.95l-95.41-58.82l-16.8,51.72l-190.15-78.6l2.69,131.34l-44.35-12.17l24.19,107.51l-69.21-10.65v105.48l-199.56-65.92
			l66.52,161.26l-66.55-42.54l28.22,91.79L137.86,832.22v110.04l-138.07,77.76V-4z"/>
    <path id="линия_главная" data-name="линия главная" class="cls-9" d="M1924-4l-72.03,56.74l-163.95-28.9
			l90.04,127.79l-68.54-12.68l37.63,57.3l-163.95-57.3l21.5,137.93l-166.64-23.33l61.82,228.2l-168.65-75.56l-29.56,45.13
			l-74.78-59.82l35.81,231.73l-215.69-204.36l-67.19,62.88l-63.83-98.89l-42.33,174.95l-95.41-58.82l-16.8,51.72l-190.15-78.6
			l2.69,131.34l-44.35-12.17l24.19,107.51l-69.21-10.65v105.48l-199.56-65.92l66.52,161.26l-66.55-42.54l28.22,91.79L137.86,832.22
			v110.04l-138.07,82.73" vector-effect="non-scaling-stroke"/>
</g>
</svg>